<?xml version="1.0" encoding="utf-8"?><!DOCTYPE svg PUBLIC "-//W3C//DTD SVG 1.1//EN" "http://www.w3.org/Graphics/SVG/1.1/DTD/svg11.dtd"><svg version="1.1" xmlns="http://www.w3.org/2000/svg" xmlns:xlink="http://www.w3.org/1999/xlink" width="32" height="32" viewBox="0 0 32 32" data-tags="bitcoin"><g fill="#444" transform="scale(0.03125 0.03125)"><path fill="rgb(247, 147, 26)" d="M1008.555 635.904c-68.352 274.347-346.155 441.173-620.459 372.736-274.176-67.84-441.173-346.24-372.651-620.16 68.267-274.56 346.155-441.515 620.288-373.205 274.347 68.48 441.259 346.24 372.821 620.715zM737.621 439.083c10.24-67.84-41.557-104.533-112.64-129.28l23.040-91.861-56.107-14.080-22.4 89.899c-14.72-3.712-30.080-7.125-45.397-10.667l22.443-90.752-56.32-14.080-23.040 92.373c-12.16-2.859-24.107-5.632-35.84-8.533l-77.44-19.2-14.933 60.032c0 0 41.6 9.6 40.747 10.069 22.827 5.803 26.88 20.736 26.24 32.683l-63.019 252.587c-3.2 7.083-10.24 17.323-26.197 13.397 0.64 0.853-40.96-10.24-40.96-10.24l-28.16 64.427 72.96 18.176 39.68 10.325-23.040 93.44 56.32 13.952 23.040-92.587c15.36 4.267 30.080 8.107 44.8 11.648l-21.76 91.904 56.32 14.080 23.253-93.44c95.573 18.219 167.68 10.965 197.973-75.691 24.32-69.845-1.28-110.080-51.925-136.363 36.437-8.235 64-32.427 71.68-82.347zM609.195 619.136c-17.237 69.973-134.699 32-172.8 22.613l30.72-123.733c38.229 9.813 160.299 28.587 142.080 101.12zM626.688 438.229c-15.787 63.573-113.579 31.36-145.28 23.467l27.904-112.64c31.744 7.68 133.845 22.357 117.333 88.917z" /></g></svg>